<?xml version="1.0" standalone="no"?>
<!DOCTYPE svg PUBLIC "-//W3C//DTD SVG 20010904//EN"
 "http://www.w3.org/TR/2001/REC-SVG-20010904/DTD/svg10.dtd">
<svg version="1.0" xmlns="http://www.w3.org/2000/svg"
 width="512.000000pt" height="512.000000pt" viewBox="0 0 512.000000 512.000000"
 preserveAspectRatio="xMidYMid meet">
<metadata>
Created by potrace 1.14, written by Peter Selinger 2001-2017
</metadata>
<g transform="translate(0.000000,512.000000) scale(0.100000,-0.100000)"
fill="#000000" stroke="none">
<path d="M1580 4854 c-45 -11 -79 -12 -188 -3 -162 14 -297 5 -308 -19 -5 -13
-16 -436 -14 -539 0 -10 -28 -13 -105 -13 l-105 0 0 -147 c0 -82 -3 -205 -7
-275 l-6 -128 34 0 c31 0 35 -3 34 -27 0 -28 0 -28 78 -31 l77 -3 0 -124 0
-124 -257 -3 c-245 -3 -261 -5 -318 -27 -83 -33 -183 -133 -216 -216 l-24 -60
0 -1040 0 -1040 24 -60 c34 -83 133 -183 216 -216 54 -21 79 -24 248 -27 103
-2 187 -5 187 -7 0 -1 -7 -20 -16 -40 -21 -50 -12 -94 27 -131 24 -23 39 -29
74 -29 55 0 82 24 142 127 l45 78 1421 0 1422 0 39 -70 c55 -97 86 -125 141
-125 82 0 134 81 102 158 l-15 36 211 3 c195 3 217 5 272 27 83 33 183 133
216 216 l24 60 0 1040 0 1040 -24 60 c-33 83 -133 183 -216 216 l-60 24 -857
3 c-472 1 -858 5 -858 7 0 3 101 180 225 394 124 214 225 392 225 394 0 2 45
80 101 173 l100 169 -3 63 c-4 56 -8 66 -39 98 -63 63 -158 63 -217 1 -24 -26
-331 -549 -536 -914 -23 -40 -44 -73 -47 -73 -4 0 -35 48 -69 108 -233 400
-248 422 -310 422 -38 0 -87 -30 -105 -64 -33 -60 -38 -48 298 -628 l85 -148
-504 0 -504 0 0 130 0 130 241 0 241 0 -9 43 c-4 23 -7 116 -5 205 2 108 -1
176 -9 200 -18 54 -57 112 -72 106 -8 -3 -18 9 -26 32 l-13 37 -102 -7 c-55
-4 -136 -9 -178 -13 l-78 -6 0 262 c0 173 -3 261 -10 261 -6 0 -26 -7 -45 -14
-40 -17 -41 -15 -20 43 8 22 11 41 7 40 -4 -1 -32 -7 -62 -15z"/>
</g>
</svg>
